<svg xmlns="http://www.w3.org/2000/svg" width="540" height="1152" viewBox="0 0 540 1152"><rect width="540" height="1152" fill="#f4f5f7"/><rect width="540" height="125" fill="#d8dde3"/><rect x="40" y="170" width="460" height="180" rx="14" fill="#e0e4e9"/><rect x="40" y="385" width="460" height="140" rx="12" fill="white"/><rect x="64" y="410" width="253.00000000000003" height="20" rx="5" fill="#bcc5ce"/><rect x="64" y="445" width="368.0" height="12" rx="4" fill="#e0e4e9"/><rect x="40" y="560" width="460" height="140" rx="12" fill="white"/><rect x="64" y="585" width="253.00000000000003" height="20" rx="5" fill="#bcc5ce"/><rect x="64" y="620" width="368.0" height="12" rx="4" fill="#e0e4e9"/><rect x="40" y="735" width="460" height="140" rx="12" fill="white"/><rect x="64" y="760" width="253.00000000000003" height="20" rx="5" fill="#bcc5ce"/><rect x="64" y="795" width="368.0" height="12" rx="4" fill="#e0e4e9"/><rect x="64" y="185" width="330" height="110" rx="10" fill="#c6cdd5"/></svg>
