<svg xmlns="http://www.w3.org/2000/svg" width="595" height="842" viewBox="0 0 595 842"><rect width="595" height="842" fill="white"/><rect x="55" y="60" width="320" height="28" fill="#a9b3bd"/><rect x="55" y="135" width="360" height="12" rx="3" fill="#dce1e6"/><rect x="55" y="172" width="470" height="12" rx="3" fill="#dce1e6"/><rect x="55" y="209" width="470" height="12" rx="3" fill="#dce1e6"/><rect x="55" y="246" width="470" height="12" rx="3" fill="#dce1e6"/><rect x="55" y="283" width="360" height="12" rx="3" fill="#dce1e6"/><rect x="55" y="320" width="470" height="12" rx="3" fill="#dce1e6"/><rect x="55" y="357" width="470" height="12" rx="3" fill="#dce1e6"/><rect x="55" y="394" width="470" height="12" rx="3" fill="#dce1e6"/><rect x="55" y="431" width="360" height="12" rx="3" fill="#dce1e6"/><rect x="55" y="468" width="470" height="12" rx="3" fill="#dce1e6"/><rect x="55" y="505" width="470" height="12" rx="3" fill="#dce1e6"/><rect x="55" y="542" width="470" height="12" rx="3" fill="#dce1e6"/><rect x="55" y="579" width="360" height="12" rx="3" fill="#dce1e6"/><rect x="55" y="616" width="470" height="12" rx="3" fill="#dce1e6"/><rect x="55" y="653" width="470" height="12" rx="3" fill="#dce1e6"/><rect x="55" y="690" width="470" height="12" rx="3" fill="#dce1e6"/><rect x="55" y="727" width="360" height="12" rx="3" fill="#dce1e6"/></svg>
